<svg width="24" height="24" viewBox="0 0 24 24"
fill="none" stroke="black" stroke-width="2"
stroke-linecap="round" stroke-linejoin="round">
<circle cx="12" cy="12" r="3"/>
<path d="M19.4 15a1.65 1.65 0 00.33 1.82l.06.06a2
           2 0 01-2.83 2.83l-.06-.06a1.65 1.65 0 00-1.82-.33
           1.65 1.65 0 00-1 1.51V21a2 2 0 01-4 0v-.1a1.65
           1.65 0 00-1-1.51 1.65 1.65 0 00-1.82.33l-.06.06a2
           2 0 01-2.83-2.83l.06-.06a1.65 1.65 0 00.33-1.82
           1.65 1.65 0 00-1.51-1H3a2 2 0 010-4h.1a1.65
           1.65 0 001.51-1 1.65 1.65 0 00-.33-1.82l-.06-.06a2
           2 0 012.83-2.83l.06.06a1.65 1.65 0 001.82.33H9a1.65
           1.65 0 001-1.51V3a2 2 0 014 0v.1a1.65 1.65
           0 001 1.51 1.65 1.65 0 001.82-.33l.06-.06a2
           2 0 012.83 2.83l-.06.06a1.65 1.65 0 00-.33 1.82V9c0
           .69.4 1.31 1 1.51H21a2 2 0 010 4h-.1a1.65 1.65
           0 00-1.5 1z"/>
</svg>